<svg xmlns="http://www.w3.org/2000/svg" version="1.1" xmlns:xlink="http://www.w3.org/1999/xlink" xmlns:svgjs="http://svgjs.dev/svgjs" width="551.6" height="551.6"><svg version="1.1" id="SvgjsSvg1346" xmlns="http://www.w3.org/2000/svg" xmlns:xlink="http://www.w3.org/1999/xlink" x="0px" y="0px" viewBox="0 0 551.6 551.6" style="enable-background:new 0 0 551.6 551.6;" xml:space="preserve">
<style type="text/css">
	.st0{fill:none;stroke:#2F4F4F;stroke-width:20;stroke-linecap:round;stroke-miterlimit:133.3333;}
	.st1{fill:#2F4F4F;}
	.st2{fill:none;stroke:#5E9E9E;stroke-width:16;stroke-miterlimit:10;}
	.st3{fill:none;stroke:#5E9E9E;stroke-width:6;stroke-miterlimit:10;}
</style>
<g>
	<path class="st0" d="M142.9,45.6C182,22.9,227.4,10,275.8,10c146.8,0,265.8,119,265.8,265.8s-119,265.8-265.8,265.8
		S10,422.6,10,275.8c0-48.4,12.9-93.8,35.6-132.9"></path>
	<path class="st1" d="M275.8,108.7L275.8,108.7c-13.8,0-25,11.2-25,25v110.1c0,13.8,11.2,25,25,25l0,0c13.8,0,25-11.2,25-25V133.7
		C300.8,119.9,289.6,108.7,275.8,108.7z"></path>
	<path class="st1" d="M273.1,273.1L273.1,273.1c-9.8,9.8-9.8,25.6,0,35.4L385.7,421c9.8,9.8,25.6,9.8,35.4,0l0,0
		c9.8-9.8,9.8-25.6,0-35.4L308.5,273.1C298.7,263.4,282.9,263.4,273.1,273.1z"></path>
	<line class="st2" x1="250.8" y1="152.4" x2="300.8" y2="152.4"></line>
	<line class="st3" x1="250.8" y1="174.1" x2="300.8" y2="174.1"></line>
	<line class="st2" x1="250.8" y1="188.7" x2="300.8" y2="188.7"></line>
	<line class="st3" x1="250.8" y1="239.5" x2="300.8" y2="239.5"></line>
	<line class="st3" x1="250.8" y1="227.3" x2="300.8" y2="227.3"></line>
	<line class="st3" x1="280.4" y1="315.8" x2="315.8" y2="280.4"></line>
	<line class="st3" x1="290.2" y1="325.5" x2="325.5" y2="290.2"></line>
	<line class="st3" x1="338.9" y1="374.3" x2="374.3" y2="338.9"></line>
	<line class="st2" x1="350.7" y1="386.1" x2="386.1" y2="350.7"></line>
	<line class="st2" x1="301.7" y1="337" x2="337" y2="301.7"></line>
	<line class="st2" x1="381" y1="416.3" x2="416.3" y2="381"></line>
</g>
</svg><style>@media (prefers-color-scheme: light) { :root { filter: none; } }
@media (prefers-color-scheme: dark) { :root { filter: none; } }
</style></svg>